<?xml version="1.0" encoding="UTF-8"?>
<svg xmlns="http://www.w3.org/2000/svg" xmlns:xlink="http://www.w3.org/1999/xlink" width="480pt" height="480pt" viewBox="0 0 480 480" version="1.1">
<g id="surface15345880">
<path style="fill-rule:nonzero;fill:rgb(46.666667%,75.686276%,94.509804%);fill-opacity:1;stroke-width:5;stroke-linecap:butt;stroke-linejoin:round;stroke:rgb(9.411765%,14.117648%,18.82353%);stroke-opacity:1;stroke-miterlimit:10;" d="M 131.508817 11.466747 C 133.575305 11.437946 135.499227 12.523752 136.541831 14.309428 C 137.584435 16.095104 137.584435 18.304158 136.541831 20.089834 C 135.499227 21.87695 133.575305 22.962757 131.508817 22.933955 L 40.491183 22.933955 C 38.424695 22.962757 36.500773 21.87695 35.458168 20.089834 C 34.415564 18.304158 34.415564 16.095104 35.458168 14.309428 C 36.500773 12.523752 38.424695 11.437946 40.491183 11.466747 Z M 142.974585 34.399723 C 145.042513 34.370922 146.966435 35.456728 148.007599 37.242404 C 149.050203 39.02952 149.050203 41.237134 148.007599 43.024251 C 146.966435 44.809927 145.042513 45.895733 142.974585 45.866932 L 29.025415 45.866932 C 26.957487 45.895733 25.033565 44.809927 23.9924 43.024251 C 22.949796 41.237134 22.949796 39.02952 23.9924 37.242404 C 25.033565 35.456728 26.957487 34.370922 29.025415 34.399723 Z M 149.066044 57.3327 C 155.402314 57.3327 160.533252 62.465078 160.533252 68.799908 L 160.533252 137.600276 C 160.533252 143.935106 155.402314 149.066044 149.066044 149.066044 L 100.960797 149.066044 L 90.70324 163.803631 C 88.426503 167.082651 83.579257 167.082651 81.29676 163.803631 L 71.039203 149.066044 L 22.933955 149.066044 C 16.597686 149.066044 11.466747 143.935106 11.466747 137.600276 L 11.466747 68.799908 C 11.466747 62.465078 16.597686 57.3327 22.933955 57.3327 Z M 85.115802 89.359663 C 85.115802 90.46563 85.232447 91.541356 85.474377 92.57388 C 73.749398 91.982014 63.342075 86.368655 56.380819 77.826212 C 55.165407 79.9071 54.478498 82.333604 54.478498 84.925714 C 54.478498 89.821922 56.964044 94.143546 60.748525 96.672294 C 58.432906 96.597411 56.258414 95.962344 54.354653 94.902459 L 54.354653 95.081026 C 54.354653 101.921317 59.22062 107.62684 65.676415 108.921455 C 64.494124 109.242589 63.248471 109.415396 61.958176 109.415396 C 61.052378 109.415396 60.16386 109.323232 59.304143 109.157625 C 61.09846 114.765224 66.314362 118.852118 72.495105 118.967323 C 67.668019 122.756124 61.586641 125.01414 54.970999 125.01414 C 53.82903 125.01414 52.695702 124.943577 51.588295 124.812532 C 57.832401 128.820222 65.258797 131.161762 73.233856 131.161762 C 99.201042 131.161762 113.389966 109.650126 113.389966 90.994132 C 113.389966 90.386426 113.385645 89.777281 113.356844 89.169575 C 116.120322 87.17365 118.502183 84.693864 120.388663 81.868464 C 117.854156 82.991712 115.14828 83.746304 112.292639 84.084718 C 115.211643 82.336484 117.440858 79.577326 118.496423 76.279586 C 115.767507 77.902535 112.743378 79.070425 109.526281 79.706932 C 106.952892 76.960735 103.283615 75.238422 99.224083 75.238422 C 91.427591 75.238422 85.115802 81.567491 85.115802 89.359663 Z M 85.115802 89.359663 " transform="matrix(2.712558,0,0,2.712558,6.72,6.72)"/>
<path style=" stroke:none;fill-rule:nonzero;fill:rgb(46.666667%,75.686276%,94.509804%);fill-opacity:1;" d="M 116.554688 37.824219 C 110.949219 37.746094 105.730469 40.691406 102.902344 45.535156 C 100.074219 50.378906 100.074219 56.371094 102.902344 61.214844 C 105.730469 66.0625 110.949219 69.007812 116.554688 68.929688 L 363.445312 68.929688 C 369.050781 69.007812 374.269531 66.0625 377.097656 61.214844 C 379.925781 56.371094 379.925781 50.378906 377.097656 45.535156 C 374.269531 40.691406 369.050781 37.746094 363.445312 37.824219 Z M 85.453125 100.03125 C 79.84375 99.953125 74.625 102.898438 71.800781 107.742188 C 68.972656 112.589844 68.972656 118.578125 71.800781 123.425781 C 74.625 128.269531 79.84375 131.214844 85.453125 131.136719 L 394.546875 131.136719 C 400.15625 131.214844 405.375 128.269531 408.199219 123.425781 C 411.027344 118.578125 411.027344 112.589844 408.199219 107.742188 C 405.375 102.898438 400.15625 99.953125 394.546875 100.03125 Z M 68.929688 162.238281 C 51.742188 162.238281 37.824219 176.160156 37.824219 193.34375 L 37.824219 379.96875 C 37.824219 397.152344 51.742188 411.070312 68.929688 411.070312 L 199.417969 411.070312 L 227.242188 451.046875 C 233.433594 459.941406 246.582031 459.941406 252.757812 451.046875 L 280.582031 411.070312 L 411.070312 411.070312 C 428.257812 411.070312 442.175781 397.152344 442.175781 379.96875 L 442.175781 193.34375 C 442.175781 176.160156 428.257812 162.238281 411.070312 162.238281 Z M 275.871094 210.808594 C 286.882812 210.808594 296.835938 215.480469 303.816406 222.929688 C 312.542969 221.203125 320.746094 218.035156 328.148438 213.632812 C 325.285156 222.578125 319.238281 230.0625 311.320312 234.804688 C 319.066406 233.886719 326.40625 231.839844 333.28125 228.792969 C 328.164062 236.457031 321.703125 243.183594 314.207031 248.597656 C 314.285156 250.246094 314.296875 251.898438 314.296875 253.546875 C 314.296875 304.152344 275.808594 362.503906 205.371094 362.503906 C 183.738281 362.503906 163.59375 356.152344 146.65625 345.28125 C 149.660156 345.636719 152.734375 345.828125 155.832031 345.828125 C 173.777344 345.828125 190.273438 339.703125 203.367188 329.425781 C 186.601562 329.113281 172.453125 318.023438 167.585938 302.816406 C 169.917969 303.265625 172.328125 303.515625 174.785156 303.515625 C 178.285156 303.515625 181.664062 303.046875 184.871094 302.175781 C 167.359375 298.664062 154.160156 283.1875 154.160156 264.632812 L 154.160156 264.148438 C 159.324219 267.023438 165.222656 268.746094 171.503906 268.949219 C 161.238281 262.089844 154.496094 250.367188 154.496094 237.082031 C 154.496094 230.054688 156.359375 223.472656 159.65625 217.828125 C 178.539062 241 206.769531 256.226562 238.574219 257.828125 C 237.917969 255.03125 237.601562 252.113281 237.601562 249.113281 C 237.601562 227.976562 254.722656 210.808594 275.871094 210.808594 Z M 275.871094 210.808594 "/>
</g>
</svg>
